<svg width="24" height="32" viewBox="0 0 24 32" fill="none" xmlns="http://www.w3.org/2000/svg">
<g clip-path="url(#clip0_512_20061)">
<mask id="mask0_512_20061" style="mask-type:luminance" maskUnits="userSpaceOnUse" x="0" y="0" width="24" height="32">
<path d="M24 0H0V32H24V0Z" fill="white"/>
</mask>
<g mask="url(#mask0_512_20061)">
<mask id="mask1_512_20061" style="mask-type:luminance" maskUnits="userSpaceOnUse" x="0" y="0" width="24" height="32">
<path d="M24 0H0V32H24V0Z" fill="white"/>
</mask>
<g mask="url(#mask1_512_20061)">
<path d="M24 0H0V32H24V0Z" fill="#00527A"/>
<path d="M0.28125 14.3828H23.7812" stroke="#153F5F" stroke-width="0.29375"/>
<g filter="url(#filter0_i_512_20061)">
<path d="M4.6875 5.22628C5.49867 5.22628 6.15625 4.5257 6.15625 3.66148C6.15625 2.79726 5.49867 2.09668 4.6875 2.09668C3.87633 2.09668 3.21875 2.79726 3.21875 3.66148C3.21875 4.5257 3.87633 5.22628 4.6875 5.22628Z" fill="#272E33"/>
</g>
<path d="M4.68555 2.26465C5.42546 2.26465 6.00778 2.90138 6.00782 3.66196C6.00782 4.42258 5.42548 5.05929 4.68555 5.05929C3.94562 5.05929 3.36328 4.42258 3.36328 3.66196C3.36332 2.90138 3.94564 2.26465 4.68555 2.26465Z" stroke="url(#paint0_linear_512_20061)" stroke-width="0.29375"/>
<path d="M0 30.8975L22.7813 31.1043" stroke="#153F5F" stroke-width="0.29375"/>
</g>
</g>
<path d="M16 31.5696H11.6364V29.9332C11.6364 29.598 11.6946 29.3168 11.8111 29.0895C11.9276 28.8608 12.0909 28.6882 12.3011 28.5717C12.5099 28.4538 12.7536 28.3949 13.032 28.3949C13.3118 28.3949 13.5547 28.4545 13.7607 28.5739C13.9652 28.6918 14.1236 28.8658 14.2358 29.0959C14.3466 29.326 14.402 29.6087 14.402 29.9439V31.1094H13.7457V30.0504C13.7457 29.8544 13.7187 29.6939 13.6648 29.5689C13.6094 29.4439 13.5291 29.3516 13.424 29.2919C13.3175 29.2308 13.1868 29.2003 13.032 29.2003C12.8771 29.2003 12.745 29.2308 12.6357 29.2919C12.5249 29.353 12.4411 29.446 12.3842 29.571C12.326 29.696 12.2969 29.8572 12.2969 30.0547V30.7791H16V31.5696ZM14.0227 29.3153L16 28.2351V29.1172L14.0227 30.1783V29.3153ZM16 27.2269V28.0706L11.6364 26.5344V25.5586L16 24.0202V24.864L12.5312 26.0294V26.0635L16 27.2269ZM14.2891 27.1992V24.8981H14.924V27.1992H14.2891ZM11.6364 22.775H16V23.5655H11.6364V22.775ZM16 22.039H11.6364V21.2485H15.3374V19.3266H16V22.039ZM16 18.0063L11.6364 19.2378V18.3877L14.843 17.6014V17.561L11.6364 16.7215V15.948L14.8452 15.1064V15.0681L11.6364 14.2818V13.4317L16 14.6632V15.4431L12.9382 16.3166V16.3507L16 17.2264V18.0063ZM16 12.8534V13.6971L11.6364 12.1609V11.185L16 9.6467V10.4904L12.5313 11.6559V11.69L16 12.8534ZM14.2891 12.8257V10.5245H14.924V12.8257H14.2891ZM11.6364 9.93555V9.0428L13.5668 7.97533V7.93271L11.6364 6.86524V5.97248L14.3722 7.55984H16V8.3482H14.3722L11.6364 9.93555ZM12.8359 3.1612C12.6499 3.18109 12.505 3.26489 12.4013 3.41262C12.2976 3.55893 12.2457 3.74927 12.2457 3.98364C12.2457 4.14842 12.2706 4.28975 12.3203 4.40765C12.37 4.52555 12.4375 4.61575 12.5227 4.67825C12.608 4.74075 12.7053 4.77271 12.8146 4.77413C12.9055 4.77413 12.9844 4.75353 13.0511 4.71234C13.1179 4.66972 13.1747 4.61219 13.2216 4.53975C13.267 4.46731 13.3054 4.38705 13.3366 4.29898C13.3679 4.21092 13.3942 4.12214 13.4155 4.03265L13.5178 3.62356C13.5561 3.45879 13.608 3.3004 13.6733 3.14842C13.7386 2.99501 13.821 2.85793 13.9205 2.73719C14.0199 2.61504 14.1399 2.51844 14.2805 2.44742C14.4212 2.3764 14.5859 2.34089 14.7749 2.34089C15.0305 2.34089 15.2557 2.40623 15.4503 2.53691C15.6435 2.66759 15.7947 2.85651 15.9041 3.10367C16.0121 3.34941 16.0661 3.647 16.0661 3.99643C16.0661 4.33592 16.0135 4.63066 15.9084 4.88066C15.8033 5.12924 15.6499 5.32384 15.4482 5.46447C15.2464 5.60367 15.0007 5.67896 14.7109 5.69032V4.91262C14.8629 4.90126 14.9893 4.85438 15.0902 4.772C15.1911 4.68961 15.2663 4.58237 15.3161 4.45026C15.3658 4.31674 15.3906 4.16759 15.3906 4.00282C15.3906 3.83094 15.3651 3.68038 15.3139 3.55112C15.2614 3.42043 15.1889 3.31816 15.0966 3.2443C15.0028 3.17043 14.8935 3.13279 14.7685 3.13137C14.6548 3.13279 14.5611 3.16617 14.4872 3.23151C14.4119 3.29685 14.3494 3.38847 14.2997 3.50637C14.2486 3.62285 14.2031 3.75921 14.1634 3.91546L14.0355 4.41191C13.9432 4.77129 13.8033 5.05538 13.6158 5.26418C13.4268 5.47157 13.1761 5.57526 12.8636 5.57526C12.6065 5.57526 12.3814 5.50566 12.1882 5.36646C11.995 5.22583 11.8452 5.03478 11.7386 4.7933C11.6307 4.55183 11.5767 4.27839 11.5767 3.97299C11.5767 3.66333 11.6307 3.39202 11.7386 3.15907C11.8452 2.92469 11.9936 2.74075 12.1839 2.60722C12.3729 2.4737 12.5902 2.40481 12.8359 2.40055V3.1612Z" fill="#85D7FF"/>
</g>
<defs>
<filter id="filter0_i_512_20061" x="3.07188" y="1.80293" width="3.08437" height="3.42363" filterUnits="userSpaceOnUse" color-interpolation-filters="sRGB">
<feFlood flood-opacity="0" result="BackgroundImageFix"/>
<feBlend mode="normal" in="SourceGraphic" in2="BackgroundImageFix" result="shape"/>
<feColorMatrix in="SourceAlpha" type="matrix" values="0 0 0 0 0 0 0 0 0 0 0 0 0 0 0 0 0 0 127 0" result="hardAlpha"/>
<feOffset dx="-0.146875" dy="-0.29375"/>
<feGaussianBlur stdDeviation="2.9375"/>
<feComposite in2="hardAlpha" operator="arithmetic" k2="-1" k3="1"/>
<feColorMatrix type="matrix" values="0 0 0 0 0 0 0 0 0 0.163132 0 0 0 0 0.28095 0 0 0 1 0"/>
<feBlend mode="normal" in2="shape" result="effect1_innerShadow_512_20061"/>
</filter>
<linearGradient id="paint0_linear_512_20061" x1="4.68555" y1="2.09723" x2="4.68555" y2="5.22684" gradientUnits="userSpaceOnUse">
<stop stop-color="#000912"/>
<stop offset="1" stop-color="#0C3450"/>
</linearGradient>
<clipPath id="clip0_512_20061">
<rect width="24" height="32" fill="white"/>
</clipPath>
</defs>
</svg>
