<svg width="24" height="30" viewBox="0 0 24 30" fill="none" xmlns="http://www.w3.org/2000/svg">
<g clip-path="url(#clip0_512_20102)">
<mask id="mask0_512_20102" style="mask-type:luminance" maskUnits="userSpaceOnUse" x="0" y="0" width="24" height="30">
<path d="M24 0H0V30H24V0Z" fill="white"/>
</mask>
<g mask="url(#mask0_512_20102)">
<path d="M24 0H0V30H24V0Z" fill="#00527A"/>
<path d="M0 0.90918H23.3615" stroke="#153F5F" stroke-width="0.29375"/>
<path d="M21.6055 2.72754V29.3562" stroke="#153F5F" stroke-width="0.29375"/>
<path d="M11.3112 8.39096C11.3112 6.55001 9.81881 5.05762 7.97786 5.05762C6.13692 5.05762 4.64453 6.55001 4.64453 8.39096C4.64453 10.2319 6.13692 11.7243 7.97786 11.7243C9.81881 11.7243 11.3112 10.2319 11.3112 8.39096Z" fill="#56534F" stroke="black" stroke-width="3.58375" stroke-dasharray="0.15 0.15"/>
<path d="M7.96354 10.0579C8.88402 10.0579 9.63021 9.31176 9.63021 8.39128C9.63021 7.4708 8.88402 6.72461 7.96354 6.72461C7.04307 6.72461 6.29688 7.4708 6.29688 8.39128C6.29688 9.31176 7.04307 10.0579 7.96354 10.0579Z" fill="#00527A"/>
<path d="M7.97813 13.2453C10.6584 13.2453 12.8313 11.0725 12.8313 8.39219C12.8313 5.71188 10.6584 3.53906 7.97813 3.53906C5.29782 3.53906 3.125 5.71188 3.125 8.39219C3.125 11.0725 5.29782 13.2453 7.97813 13.2453Z" stroke="#43769D" stroke-width="0.29375"/>
<path d="M11.3346 20.9983C11.3346 19.1573 9.84225 17.665 8.0013 17.665C6.16035 17.665 4.66797 19.1573 4.66797 20.9983C4.66797 22.8392 6.16035 24.3316 8.0013 24.3316C9.84225 24.3316 11.3346 22.8392 11.3346 20.9983Z" fill="#56534F" stroke="black" stroke-width="3.58375" stroke-dasharray="0.15 0.15"/>
<path d="M7.98698 22.6654C8.90746 22.6654 9.65365 21.9192 9.65365 20.9987C9.65365 20.0782 8.90746 19.332 7.98698 19.332C7.06651 19.332 6.32031 20.0782 6.32031 20.9987C6.32031 21.9192 7.06651 22.6654 7.98698 22.6654Z" fill="#00527A"/>
<path d="M8.00157 25.8527C10.6819 25.8527 12.8547 23.6799 12.8547 20.9996C12.8547 18.3193 10.6819 16.1465 8.00157 16.1465C5.32126 16.1465 3.14844 18.3193 3.14844 20.9996C3.14844 23.6799 5.32126 25.8527 8.00157 25.8527Z" stroke="#43769D" stroke-width="0.29375"/>
<path d="M1.72266 2.84277L1.72267 30" stroke="#153F5F" stroke-width="0.29375"/>
<path d="M15.6406 2.72754V30.0007" stroke="#153F5F" stroke-width="0.29375"/>
<path d="M23.3787 0.90918H0" stroke="#153F5F" stroke-width="0.29375"/>
<path d="M23.3754 1.81836H0" stroke="#153F5F" stroke-width="0.29375"/>
<path d="M23.3765 2.72754H0" stroke="#153F5F" stroke-width="0.29375"/>
</g>
</g>
<defs>
<clipPath id="clip0_512_20102">
<rect width="24" height="30" fill="white"/>
</clipPath>
</defs>
</svg>
