<svg width="24" height="28" viewBox="0 0 24 28" fill="none" xmlns="http://www.w3.org/2000/svg">
<g clip-path="url(#clip0_512_20081)">
<mask id="mask0_512_20081" style="mask-type:luminance" maskUnits="userSpaceOnUse" x="0" y="0" width="24" height="28">
<path d="M24 0H0V28H24V0Z" fill="white"/>
</mask>
<g mask="url(#mask0_512_20081)">
<path d="M24 0H0V28H24V0Z" fill="#00527A"/>
<g filter="url(#filter0_d_512_20081)">
<path d="M2.97266 10.8145H5.94499V16.0683H2.97266V10.8145Z" fill="#2D373F"/>
<path d="M5.72266 11.0352V15.8477H3.19141V11.0352H5.72266Z" stroke="url(#paint0_linear_512_20081)" stroke-width="0.440625"/>
</g>
<g filter="url(#filter1_i_512_20081)">
<path d="M5.72233 22.4942C5.72233 23.3016 5.05695 23.9562 4.23617 23.9562C3.41538 23.9562 2.75 23.3016 2.75 22.4942C2.75 21.6868 3.41538 21.0322 4.23617 21.0322C5.05695 21.0322 5.72233 21.6868 5.72233 22.4942Z" fill="#272E33"/>
</g>
<path d="M4.23438 21.1787C4.97624 21.1788 5.57322 21.7702 5.57325 22.4941C5.57325 23.2181 4.97626 23.8095 4.23438 23.8096C3.49243 23.8096 2.89453 23.2182 2.89453 22.4941C2.89456 21.7701 3.49244 21.1787 4.23438 21.1787Z" stroke="url(#paint1_linear_512_20081)" stroke-width="0.29375"/>
<g filter="url(#filter2_i_512_20081)">
<path d="M4.23617 7.03429C5.05696 7.03429 5.72234 6.37975 5.72234 5.57232C5.72234 4.7649 5.05696 4.11035 4.23617 4.11035C3.41538 4.11035 2.75 4.7649 2.75 5.57232C2.75 6.37975 3.41538 7.03429 4.23617 7.03429Z" fill="#272E33"/>
</g>
<path d="M4.23438 4.25684C4.97624 4.25692 5.57322 4.8483 5.57325 5.57227C5.57325 6.29626 4.97626 6.88761 4.23438 6.8877C3.49243 6.8877 2.89453 6.29631 2.89453 5.57227C2.89456 4.84825 3.49244 4.25684 4.23438 4.25684Z" stroke="url(#paint2_linear_512_20081)" stroke-width="0.29375"/>
<path d="M0 19.1191H23.7787" stroke="#153F5F" stroke-width="0.29375"/>
</g>
<path d="M11.6364 20.7791H16V21.5696H11.6364V20.7791ZM11.6364 16.3372H16V17.0403L13.0277 19.0964V19.1326H16V19.9231H11.6364V19.2157L14.6108 17.1618V17.1234H11.6364V16.3372ZM16 13.9972V15.4759H11.6364V13.9673C11.6364 13.5341 11.7237 13.1619 11.8984 12.8509C12.0717 12.5384 12.321 12.2983 12.6463 12.1307C12.9716 11.9631 13.3608 11.8793 13.8139 11.8793C14.2685 11.8793 14.6591 11.9638 14.9858 12.1328C15.3125 12.3004 15.5632 12.5426 15.7379 12.8594C15.9126 13.1747 16 13.554 16 13.9972ZM15.3161 14.6854V14.0355C15.3161 13.7315 15.2607 13.478 15.1499 13.2749C15.0376 13.0717 14.8707 12.919 14.6491 12.8168C14.4261 12.7145 14.1477 12.6634 13.8139 12.6634C13.4801 12.6634 13.2031 12.7145 12.983 12.8168C12.7614 12.919 12.5959 13.0703 12.4865 13.2706C12.3757 13.4695 12.3203 13.7166 12.3203 14.0121V14.6854H15.3161ZM11.6364 10.3377H16V11.1282H11.6364V10.3377ZM16 8.92134V9.76509L11.6364 8.22887V7.25302L16 5.71467V6.55842L12.5313 7.7239V7.75799L16 8.92134ZM14.2891 8.89364V6.59251H14.924V8.89364H14.2891ZM11.6364 1.55398H16L16 2.2571L13.0277 4.31321V4.34943H16V5.13991H11.6364V4.43253L14.6108 2.37855V2.3402H11.6364V1.55398Z" fill="#85D7FF"/>
</g>
<defs>
<filter id="filter0_d_512_20081" x="-2.90234" y="10.8145" width="14.7227" height="17.0039" filterUnits="userSpaceOnUse" color-interpolation-filters="sRGB">
<feFlood flood-opacity="0" result="BackgroundImageFix"/>
<feColorMatrix in="SourceAlpha" type="matrix" values="0 0 0 0 0 0 0 0 0 0 0 0 0 0 0 0 0 0 127 0" result="hardAlpha"/>
<feOffset dy="5.875"/>
<feGaussianBlur stdDeviation="2.9375"/>
<feComposite in2="hardAlpha" operator="out"/>
<feColorMatrix type="matrix" values="0 0 0 0 0 0 0 0 0 0 0 0 0 0 0 0 0 0 0.25 0"/>
<feBlend mode="normal" in2="BackgroundImageFix" result="effect1_dropShadow_512_20081"/>
<feBlend mode="normal" in="SourceGraphic" in2="effect1_dropShadow_512_20081" result="shape"/>
</filter>
<filter id="filter1_i_512_20081" x="2.60313" y="20.7385" width="3.11953" height="3.21758" filterUnits="userSpaceOnUse" color-interpolation-filters="sRGB">
<feFlood flood-opacity="0" result="BackgroundImageFix"/>
<feBlend mode="normal" in="SourceGraphic" in2="BackgroundImageFix" result="shape"/>
<feColorMatrix in="SourceAlpha" type="matrix" values="0 0 0 0 0 0 0 0 0 0 0 0 0 0 0 0 0 0 127 0" result="hardAlpha"/>
<feOffset dx="-0.146875" dy="-0.29375"/>
<feGaussianBlur stdDeviation="2.9375"/>
<feComposite in2="hardAlpha" operator="arithmetic" k2="-1" k3="1"/>
<feColorMatrix type="matrix" values="0 0 0 0 0 0 0 0 0 0.163132 0 0 0 0 0.28095 0 0 0 1 0"/>
<feBlend mode="normal" in2="shape" result="effect1_innerShadow_512_20081"/>
</filter>
<filter id="filter2_i_512_20081" x="2.60313" y="3.8166" width="3.11953" height="3.21758" filterUnits="userSpaceOnUse" color-interpolation-filters="sRGB">
<feFlood flood-opacity="0" result="BackgroundImageFix"/>
<feBlend mode="normal" in="SourceGraphic" in2="BackgroundImageFix" result="shape"/>
<feColorMatrix in="SourceAlpha" type="matrix" values="0 0 0 0 0 0 0 0 0 0 0 0 0 0 0 0 0 0 127 0" result="hardAlpha"/>
<feOffset dx="-0.146875" dy="-0.29375"/>
<feGaussianBlur stdDeviation="2.9375"/>
<feComposite in2="hardAlpha" operator="arithmetic" k2="-1" k3="1"/>
<feColorMatrix type="matrix" values="0 0 0 0 0 0 0 0 0 0.163132 0 0 0 0 0.28095 0 0 0 1 0"/>
<feBlend mode="normal" in2="shape" result="effect1_innerShadow_512_20081"/>
</filter>
<linearGradient id="paint0_linear_512_20081" x1="5.94304" y1="14.0981" x2="3.77457" y2="13.2802" gradientUnits="userSpaceOnUse">
<stop/>
<stop offset="0.886835" stop-color="#426680"/>
</linearGradient>
<linearGradient id="paint1_linear_512_20081" x1="4.23422" y1="21.0322" x2="4.23422" y2="23.9562" gradientUnits="userSpaceOnUse">
<stop stop-color="#000912"/>
<stop offset="1" stop-color="#0C3450"/>
</linearGradient>
<linearGradient id="paint2_linear_512_20081" x1="4.23422" y1="4.11035" x2="4.23422" y2="7.03429" gradientUnits="userSpaceOnUse">
<stop stop-color="#000912"/>
<stop offset="1" stop-color="#0C3450"/>
</linearGradient>
<clipPath id="clip0_512_20081">
<rect width="24" height="28" fill="white"/>
</clipPath>
</defs>
</svg>
