<svg width="24" height="26" viewBox="0 0 24 26" fill="none" xmlns="http://www.w3.org/2000/svg">
<g clip-path="url(#clip0_512_20125)">
<path d="M0.0084692 17.0104C-0.527194 7.66337 24.5271 7.66311 23.9915 17.0102C23.9012 18.5863 23.1133 20.8125 22.3425 22.6552C21.4682 24.7453 19.3804 26 17.1237 26H6.87689C4.62072 26 2.53327 24.7459 1.65871 22.6564C0.887409 20.8136 0.0988177 18.5869 0.0084692 17.0104Z" fill="#F3CA75"/>
<path d="M0 0H24V17H0V0Z" fill="#FFDA8E"/>
<path d="M6.43555 23.4561H5.90723C5.88214 23.4561 5.85692 23.4515 5.83204 23.4502V19.1133H6.43555V23.4561ZM7.18165 19.1133V23.4561H6.58204V19.1133H7.18165ZM5.68555 23.4385C5.46859 23.4054 5.26555 23.3227 5.08692 23.2021V19.1191C5.11814 19.1172 5.14975 19.1133 5.18165 19.1133H5.68555V23.4385ZM4.94044 23.0889C4.80457 22.9697 4.68732 22.8273 4.60157 22.6611L4.33985 22.1533V19.3789C4.51353 19.2566 4.71596 19.1711 4.94044 19.1348V23.0889ZM4.19337 21.8701L3.87598 21.2559C3.55113 20.6264 3.7314 19.9209 4.19337 19.4971V21.8701ZM7.92872 19.1133V23.4561H7.32813V19.1133H7.92872ZM8.67579 19.1133V23.4561H8.0752V19.1133H8.67579ZM9.42286 19.1133V23.4561H8.82227V19.1133H9.42286ZM10.2422 23.4561H9.56934V19.1133H10.2422V23.4561Z" fill="#5D5D5D"/>
<path d="M16.0488 23.4561H16.5771C16.5996 23.4561 16.6222 23.4522 16.6445 23.4512V19.1133H16.0488V23.4561ZM15.2988 19.1133V23.4561H15.9023V19.1133H15.2988ZM16.791 23.4395C17.0109 23.4072 17.2167 23.3241 17.3975 23.2021V19.1191C17.3662 19.1172 17.3346 19.1133 17.3027 19.1133H16.791V23.4395ZM17.5439 23.0889C17.6798 22.9697 17.7971 22.8273 17.8828 22.6611L18.1445 22.1533V19.3789C17.9708 19.2566 17.7684 19.1711 17.5439 19.1348V23.0889ZM18.291 21.8701L18.6084 21.2559C18.9333 20.6265 18.753 19.9209 18.291 19.4971V21.8701ZM14.5517 19.1133V23.4561H15.1523V19.1133H14.5517ZM13.8047 19.1133V23.4561H14.4053V19.1133H13.8047ZM13.0576 19.1133V23.4561H13.6582V19.1133H13.0576ZM12.2422 23.4561H12.9101V19.1133H12.2422V23.4561Z" fill="#5D5D5D"/>
<path d="M6 -6H17.4006V6.94841C17.4006 7.96241 16.5787 8.78441 15.5647 8.78441H7.83594C6.82198 8.78441 6 7.96241 6 6.94841V-6Z" fill="#B49C69" stroke="#D4BC8B" stroke-width="0.917969"/>
<path d="M7.73828 1H15.9989V6.04087H7.73828V3.52044V1Z" fill="#D4BC8B"/>
</g>
<defs>
<clipPath id="clip0_512_20125">
<rect width="24" height="26" fill="white"/>
</clipPath>
</defs>
</svg>
