<svg width="24" height="113" viewBox="0 0 24 113" fill="none" xmlns="http://www.w3.org/2000/svg">
<g clip-path="url(#clip0_507_18877)">
<rect width="24" height="113" fill="#00527A"/>
<path d="M0 1H24" stroke="#153F5F" stroke-width="0.29375"/>
<path d="M0 2H24" stroke="#153F5F" stroke-width="0.29375"/>
<path d="M0 3H24" stroke="#153F5F" stroke-width="0.29375"/>
<path d="M0 4H24" stroke="#153F5F" stroke-width="0.29375"/>
<path d="M0 5H24" stroke="#153F5F" stroke-width="0.29375"/>
<path d="M0 6H24" stroke="#153F5F" stroke-width="0.29375"/>
<path d="M0 7H24" stroke="#153F5F" stroke-width="0.29375"/>
<path d="M0 8H24" stroke="#153F5F" stroke-width="0.29375"/>
<path d="M0 9H24" stroke="#153F5F" stroke-width="0.29375"/>
<path d="M0 10H24" stroke="#153F5F" stroke-width="0.29375"/>
<path d="M0 10H24" stroke="#153F5F" stroke-width="0.29375"/>
<path d="M0 10H24" stroke="#153F5F" stroke-width="0.29375"/>
<path d="M0 10H24" stroke="#153F5F" stroke-width="0.29375"/>
<path d="M0 10H24" stroke="#153F5F" stroke-width="0.29375"/>
<path d="M0 10H24" stroke="#153F5F" stroke-width="0.29375"/>
<path d="M0 10H24" stroke="#153F5F" stroke-width="0.29375"/>
<path d="M0 10H24" stroke="#153F5F" stroke-width="0.29375"/>
<path d="M0 11H24" stroke="#153F5F" stroke-width="0.29375"/>
<path d="M0 12H24" stroke="#153F5F" stroke-width="0.29375"/>
<path d="M0 13H24" stroke="#153F5F" stroke-width="0.29375"/>
<path d="M0 14H24" stroke="#153F5F" stroke-width="0.29375"/>
<path d="M0 15H24" stroke="#153F5F" stroke-width="0.29375"/>
<path d="M0 16H24" stroke="#153F5F" stroke-width="0.29375"/>
<path d="M0 17H24" stroke="#153F5F" stroke-width="0.29375"/>
<path d="M0 18H24" stroke="#153F5F" stroke-width="0.29375"/>
<path d="M0 19H24" stroke="#153F5F" stroke-width="0.29375"/>
<path d="M0 20H24" stroke="#153F5F" stroke-width="0.29375"/>
<path d="M0 21H24" stroke="#153F5F" stroke-width="0.29375"/>
<path d="M0 22H24" stroke="#153F5F" stroke-width="0.29375"/>
<path d="M0 23H24" stroke="#153F5F" stroke-width="0.29375"/>
<path d="M0 24H24" stroke="#153F5F" stroke-width="0.29375"/>
<path d="M0 25H24" stroke="#153F5F" stroke-width="0.29375"/>
<path d="M0 26H24" stroke="#153F5F" stroke-width="0.29375"/>
<path d="M0 27H24" stroke="#153F5F" stroke-width="0.29375"/>
<path d="M0 28H24" stroke="#153F5F" stroke-width="0.29375"/>
<path d="M0 29H24" stroke="#153F5F" stroke-width="0.29375"/>
<path d="M0 30H24" stroke="#153F5F" stroke-width="0.29375"/>
<path d="M0 31H24" stroke="#153F5F" stroke-width="0.29375"/>
<path d="M0 32H24" stroke="#153F5F" stroke-width="0.29375"/>
<path d="M0 33H24" stroke="#153F5F" stroke-width="0.29375"/>
<path d="M0 34H24" stroke="#153F5F" stroke-width="0.29375"/>
<path d="M0 35H24" stroke="#153F5F" stroke-width="0.29375"/>
<path d="M0 36H24" stroke="#153F5F" stroke-width="0.29375"/>
<path d="M0 37H24" stroke="#153F5F" stroke-width="0.29375"/>
<path d="M0 38H24" stroke="#153F5F" stroke-width="0.29375"/>
<path d="M0 39H24" stroke="#153F5F" stroke-width="0.29375"/>
<path d="M0 40H24" stroke="#153F5F" stroke-width="0.29375"/>
<path d="M0 41H24" stroke="#153F5F" stroke-width="0.29375"/>
<path d="M0 42H24" stroke="#153F5F" stroke-width="0.29375"/>
<path d="M0 43H24" stroke="#153F5F" stroke-width="0.29375"/>
<path d="M0 44H24" stroke="#153F5F" stroke-width="0.29375"/>
<path d="M0 45H24" stroke="#153F5F" stroke-width="0.29375"/>
<path d="M0 46H24" stroke="#153F5F" stroke-width="0.29375"/>
<path d="M0 47H24" stroke="#153F5F" stroke-width="0.29375"/>
<path d="M0 48H24" stroke="#153F5F" stroke-width="0.29375"/>
<path d="M0 49H24" stroke="#153F5F" stroke-width="0.29375"/>
<path d="M0 50H24" stroke="#153F5F" stroke-width="0.29375"/>
<path d="M0 51H24" stroke="#153F5F" stroke-width="0.29375"/>
<path d="M0 52H24" stroke="#153F5F" stroke-width="0.29375"/>
<path d="M0 53H24" stroke="#153F5F" stroke-width="0.29375"/>
<path d="M0 54H24" stroke="#153F5F" stroke-width="0.29375"/>
<path d="M0 55H24" stroke="#153F5F" stroke-width="0.29375"/>
<path d="M0 56H24" stroke="#153F5F" stroke-width="0.29375"/>
<path d="M0 57H24" stroke="#153F5F" stroke-width="0.29375"/>
<path d="M0 58H24" stroke="#153F5F" stroke-width="0.29375"/>
<path d="M0 59H24" stroke="#153F5F" stroke-width="0.29375"/>
<path d="M0 60H24" stroke="#153F5F" stroke-width="0.29375"/>
<path d="M0 61H24" stroke="#153F5F" stroke-width="0.29375"/>
<path d="M0 62H24" stroke="#153F5F" stroke-width="0.29375"/>
<path d="M0 63H24" stroke="#153F5F" stroke-width="0.29375"/>
<path d="M0 64H24" stroke="#153F5F" stroke-width="0.29375"/>
<path d="M0 65H24" stroke="#153F5F" stroke-width="0.29375"/>
<path d="M0 66H24" stroke="#153F5F" stroke-width="0.29375"/>
<path d="M0 67H24" stroke="#153F5F" stroke-width="0.29375"/>
<path d="M0 68H24" stroke="#153F5F" stroke-width="0.29375"/>
<path d="M0 69H24" stroke="#153F5F" stroke-width="0.29375"/>
<path d="M0 70H24" stroke="#153F5F" stroke-width="0.29375"/>
<path d="M0 71H24" stroke="#153F5F" stroke-width="0.29375"/>
<path d="M0 72H24" stroke="#153F5F" stroke-width="0.29375"/>
<path d="M0 73H24" stroke="#153F5F" stroke-width="0.29375"/>
<path d="M0 74H24" stroke="#153F5F" stroke-width="0.29375"/>
<path d="M0 75H24" stroke="#153F5F" stroke-width="0.29375"/>
<path d="M0 76H24" stroke="#153F5F" stroke-width="0.29375"/>
<path d="M0 77H24" stroke="#153F5F" stroke-width="0.29375"/>
<path d="M0 78H24" stroke="#153F5F" stroke-width="0.29375"/>
<path d="M0 79H24" stroke="#153F5F" stroke-width="0.29375"/>
<path d="M0 80H24" stroke="#153F5F" stroke-width="0.29375"/>
<path d="M0 81H24" stroke="#153F5F" stroke-width="0.29375"/>
<path d="M0 82H24" stroke="#153F5F" stroke-width="0.29375"/>
<path d="M0 83H24" stroke="#153F5F" stroke-width="0.29375"/>
<path d="M0 84H24" stroke="#153F5F" stroke-width="0.29375"/>
<path d="M0 85H24" stroke="#153F5F" stroke-width="0.29375"/>
<path d="M0 86H24" stroke="#153F5F" stroke-width="0.29375"/>
<path d="M0 87H24" stroke="#153F5F" stroke-width="0.29375"/>
<path d="M0 88H24" stroke="#153F5F" stroke-width="0.29375"/>
<path d="M0 89H24" stroke="#153F5F" stroke-width="0.29375"/>
<path d="M0 90H24" stroke="#153F5F" stroke-width="0.29375"/>
<path d="M0 91H24" stroke="#153F5F" stroke-width="0.29375"/>
<path d="M0 92H24" stroke="#153F5F" stroke-width="0.29375"/>
<path d="M0 93H24" stroke="#153F5F" stroke-width="0.29375"/>
<path d="M0 94H24" stroke="#153F5F" stroke-width="0.29375"/>
<path d="M0 95H24" stroke="#153F5F" stroke-width="0.29375"/>
<path d="M0 96H24" stroke="#153F5F" stroke-width="0.29375"/>
<path d="M0 97H24" stroke="#153F5F" stroke-width="0.29375"/>
<path d="M0 98H24" stroke="#153F5F" stroke-width="0.29375"/>
<path d="M0 99H24" stroke="#153F5F" stroke-width="0.29375"/>
<path d="M0 100H24" stroke="#153F5F" stroke-width="0.29375"/>
<path d="M0 101H24" stroke="#153F5F" stroke-width="0.29375"/>
<path d="M0 102H24" stroke="#153F5F" stroke-width="0.29375"/>
<path d="M0 103H24" stroke="#153F5F" stroke-width="0.29375"/>
<path d="M21 0H24V114.097H21V0Z" fill="#0B1621"/>
<path d="M23.1328 0.141602H23.6665V171.145H23.1328V0.141602Z" fill="#F3AA14"/>
<path d="M22.2656 127.261H22.5189V0.140625L22.2656 0.141683V127.261Z" fill="#8C8273"/>
<path d="M21.3984 0.141602H21.8581V118.485H21.3984V0.141602Z" fill="#8C8273"/>
<path d="M9 11.5H21V58H8.75L9 11.5Z" fill="#F0E6C7"/>
</g>
<defs>
<clipPath id="clip0_507_18877">
<rect width="24" height="113" fill="white"/>
</clipPath>
</defs>
</svg>
