<svg width="180" height="180" viewBox="0 0 180 180" fill="none" xmlns="http://www.w3.org/2000/svg">
<rect width="180" height="180" rx="90" fill="#FF5801"/>
<rect x="10" y="10" width="160" height="160" rx="80" fill="#131313"/>
<path d="M72.3584 101.534C71.6227 100.81 70.6892 100.319 69.6754 100.124C68.6615 99.9287 67.6126 100.037 66.6603 100.436C66.0117 100.672 65.4226 101.046 64.9347 101.534C64.4468 102.022 64.0721 102.611 63.837 103.26C63.4979 104.055 63.3612 104.922 63.4392 105.783C63.5173 106.644 63.8075 107.472 64.2841 108.193C64.7606 108.915 65.4085 109.506 66.1699 109.916C66.9312 110.325 67.7822 110.54 68.6467 110.54C69.5112 110.54 70.3622 110.325 71.1235 109.916C71.8849 109.506 72.5328 108.915 73.0093 108.193C73.4859 107.472 73.7761 106.644 73.8541 105.783C73.9322 104.922 73.7955 104.055 73.4564 103.26C73.1919 102.626 72.8205 102.042 72.3584 101.534ZM114.185 101.534C113.174 100.601 111.849 100.083 110.473 100.083C109.098 100.083 107.772 100.601 106.761 101.534C106.299 102.043 105.928 102.626 105.664 103.26C105.256 104.211 105.142 105.262 105.338 106.278C105.533 107.294 106.029 108.228 106.761 108.959C107.269 109.421 107.853 109.792 108.487 110.057C109.113 110.333 109.789 110.475 110.473 110.475C111.157 110.475 111.833 110.333 112.459 110.057C113.092 109.791 113.676 109.42 114.185 108.959C114.917 108.228 115.413 107.294 115.608 106.278C115.804 105.262 115.691 104.211 115.283 103.261C115.019 102.627 114.647 102.043 114.185 101.534V101.534ZM127.776 125.613C131.478 122.662 134.303 118.757 135.947 114.318C137.591 109.88 137.992 105.076 137.105 100.426L129.263 58.5995C128.138 52.6082 124.956 47.1982 120.265 43.3048C115.575 39.4115 109.671 37.2796 103.575 37.2778H75.5443C69.4484 37.2797 63.5448 39.4116 58.8543 43.305C54.1637 47.1984 50.9811 52.6084 49.8568 58.5997L42.0143 100.427C41.128 105.076 41.5285 109.88 43.1727 114.318C44.8168 118.757 47.6421 122.662 51.3436 125.613L44.0364 132.92C43.5437 133.404 43.1518 133.981 42.8832 134.617C42.6146 135.253 42.4747 135.936 42.4716 136.627C42.4685 137.317 42.6022 138.001 42.865 138.64C43.1278 139.278 43.5145 139.859 44.0027 140.347C44.491 140.835 45.0711 141.222 45.7097 141.485C46.3482 141.747 47.0325 141.881 47.723 141.878C48.4135 141.875 49.0965 141.735 49.7327 141.466C50.3688 141.198 50.9454 140.806 51.4293 140.313L61.2018 130.541C63.3244 131.095 65.5081 131.379 67.7017 131.388H111.418C113.611 131.379 115.795 131.095 117.918 130.541L127.69 140.313C128.674 141.279 129.999 141.817 131.377 141.811C132.755 141.805 134.075 141.255 135.05 140.28C136.024 139.305 136.575 137.985 136.581 136.607C136.587 135.229 136.049 133.904 135.083 132.92L127.776 125.613ZM60.1297 60.5298C60.8057 56.9351 62.7159 53.6894 65.5303 51.3532C68.3447 49.0171 71.8866 47.7372 75.5443 47.7346H103.575C107.233 47.7372 110.775 49.0171 113.589 51.3532C116.404 53.6894 118.314 56.9351 118.99 60.5298L120.802 70.1967C116.899 74.6385 112.093 78.1969 106.706 80.6346C101.318 83.0722 95.473 84.3331 89.5597 84.3331C83.6465 84.3331 77.8012 83.0722 72.4138 80.6346C67.0263 78.1969 62.2206 74.6385 58.3172 70.1967L60.1297 60.5298ZM123.483 115.264C122.014 117.04 120.17 118.469 118.085 119.448C115.999 120.428 113.722 120.935 111.418 120.932H67.7017C65.3974 120.931 63.1216 120.422 61.036 119.443C58.9505 118.463 57.1064 117.035 55.6348 115.262C54.1633 113.489 53.1004 111.413 52.5219 109.183C51.9433 106.952 51.8632 104.622 52.2872 102.357L56.0049 82.5289C65.3929 90.4468 77.2785 94.7899 89.5597 94.7899C101.841 94.7899 113.727 90.4468 123.115 82.5289L126.832 102.357C127.26 104.622 127.182 106.954 126.603 109.185C126.024 111.417 124.958 113.493 123.483 115.264V115.264Z" fill="url(#paint0_linear_655_7572)"/>
<defs>
<linearGradient id="paint0_linear_655_7572" x1="89.5598" y1="37.2778" x2="89.5598" y2="141.878" gradientUnits="userSpaceOnUse">
<stop stop-color="#E9E9E9"/>
<stop offset="1" stop-color="#838383"/>
</linearGradient>
</defs>
</svg>
