<svg width="32" height="32" viewBox="0 0 32 32" fill="none" xmlns="http://www.w3.org/2000/svg">
<rect width="32" height="32" rx="16" fill="#FF5801"/>
<rect x="3" y="3" width="26" height="26" rx="13" fill="#131313"/>
<path d="M13.2574 17.9084C13.1401 17.793 12.9913 17.7147 12.8297 17.6836C12.6681 17.6525 12.5009 17.6698 12.3492 17.7334C12.2458 17.7709 12.1519 17.8306 12.0741 17.9084C11.9964 17.9861 11.9366 18.08 11.8992 18.1834C11.8451 18.3102 11.8233 18.4483 11.8358 18.5856C11.8482 18.7228 11.8945 18.8548 11.9704 18.9697C12.0464 19.0847 12.1496 19.179 12.271 19.2443C12.3923 19.3096 12.528 19.3437 12.6658 19.3437C12.8036 19.3437 12.9392 19.3096 13.0605 19.2443C13.1819 19.179 13.2852 19.0847 13.3611 18.9697C13.4371 18.8548 13.4833 18.7228 13.4958 18.5856C13.5082 18.4483 13.4864 18.3102 13.4324 18.1834C13.3902 18.0824 13.331 17.9894 13.2574 17.9084ZM19.924 17.9084C19.7629 17.7597 19.5517 17.6771 19.3324 17.6771C19.1131 17.6771 18.9019 17.7597 18.7408 17.9084C18.6671 17.9894 18.6079 18.0824 18.5658 18.1835C18.5007 18.335 18.4827 18.5026 18.5138 18.6645C18.545 18.8264 18.624 18.9752 18.7407 19.0917C18.8217 19.1654 18.9147 19.2246 19.0158 19.2667C19.1155 19.3108 19.2233 19.3335 19.3323 19.3335C19.4413 19.3335 19.5492 19.3108 19.6489 19.2667C19.7498 19.2244 19.8428 19.1652 19.924 19.0917C20.0406 18.9752 20.1196 18.8264 20.1508 18.6645C20.182 18.5026 20.164 18.3351 20.099 18.1835C20.0568 18.0825 19.9977 17.9894 19.924 17.9084V17.9084ZM22.0902 21.7461C22.6802 21.2759 23.1305 20.6535 23.3926 19.946C23.6546 19.2385 23.7185 18.4729 23.5772 17.7318L22.3272 11.0651C22.148 10.1102 21.6407 9.24792 20.8931 8.62737C20.1455 8.00682 19.2045 7.66703 18.2329 7.66675H13.7652C12.7936 7.66704 11.8526 8.00684 11.105 8.6274C10.3574 9.24795 9.85011 10.1102 9.67091 11.0652L8.42091 17.7318C8.27965 18.4729 8.34349 19.2386 8.60554 19.946C8.8676 20.6535 9.31792 21.2759 9.90788 21.7462L8.7432 22.9109C8.66468 22.988 8.60221 23.0799 8.5594 23.1813C8.51659 23.2827 8.4943 23.3916 8.4938 23.5016C8.4933 23.6117 8.51461 23.7208 8.5565 23.8225C8.59838 23.9243 8.66002 24.0168 8.73784 24.0946C8.81566 24.1724 8.90813 24.2341 9.00991 24.276C9.11168 24.3178 9.22075 24.3391 9.33081 24.3386C9.44086 24.3382 9.54973 24.3159 9.65112 24.273C9.75251 24.2302 9.84442 24.1678 9.92154 24.0892L11.4792 22.5316C11.8175 22.6199 12.1655 22.6653 12.5152 22.6667H19.4829C19.8325 22.6653 20.1806 22.6199 20.5189 22.5317L22.0765 24.0892C22.2333 24.2432 22.4445 24.329 22.6641 24.328C22.8838 24.327 23.0942 24.2393 23.2496 24.0839C23.4049 23.9286 23.4926 23.7182 23.4936 23.4985C23.4946 23.2788 23.4088 23.0677 23.2549 22.9109L22.0902 21.7461ZM11.3083 11.3728C11.416 10.7999 11.7205 10.2825 12.1691 9.91019C12.6176 9.53783 13.1822 9.33383 13.7652 9.33341H18.2329C18.8159 9.33383 19.3804 9.53783 19.829 9.91019C20.2776 10.2825 20.5821 10.7999 20.6898 11.3728L20.9787 12.9136C20.3565 13.6215 19.5906 14.1887 18.7319 14.5772C17.8732 14.9658 16.9415 15.1667 15.999 15.1667C15.0565 15.1667 14.1249 14.9658 13.2662 14.5772C12.4075 14.1887 11.6415 13.6215 11.0194 12.9136L11.3083 11.3728ZM21.4059 20.0967C21.1718 20.3798 20.878 20.6075 20.5455 20.7637C20.2131 20.9198 19.8502 21.0006 19.4829 21.0001H12.5152C12.1479 20.9999 11.7851 20.9189 11.4527 20.7627C11.1203 20.6065 10.8264 20.379 10.5918 20.0964C10.3573 19.8138 10.1879 19.483 10.0957 19.1274C10.0035 18.7719 9.99069 18.4005 10.0583 18.0395L10.6508 14.8792C12.1472 16.1412 14.0416 16.8334 15.999 16.8334C17.9565 16.8334 19.8509 16.1412 21.3472 14.8792L21.9398 18.0395C22.008 18.4005 21.9955 18.7722 21.9032 19.1279C21.8109 19.4836 21.6411 19.8144 21.4059 20.0967V20.0967Z" fill="url(#paint0_linear_655_7572)"/>
<defs>
<linearGradient id="paint0_linear_655_7572" x1="15.9991" y1="7.66675" x2="15.9991" y2="24.3387" gradientUnits="userSpaceOnUse">
<stop stop-color="#E9E9E9"/>
<stop offset="1" stop-color="#838383"/>
</linearGradient>
</defs>
</svg>
