<svg width="14" height="14" viewBox="0 0 14 14" fill="none" xmlns="http://www.w3.org/2000/svg">
<path d="M7.07786 14C5.10212 14 3.42838 13.3223 2.05662 11.967C0.685541 10.611 0 8.95634 0 7.003C0 5.04967 0.685541 3.39434 2.05662 2.03701C3.4277 0.679673 5.10145 0.000673516 7.07786 6.8493e-06C8.27974 6.8493e-06 9.40512 0.28234 10.454 0.847007C11.5022 1.41167 12.3472 2.20001 12.9889 3.21201V0.500007C12.9889 0.358007 13.0374 0.23934 13.1345 0.144007C13.2315 0.0486736 13.3519 0.000673516 13.4955 6.8493e-06C13.639 -0.000659817 13.759 0.0473402 13.8554 0.144007C13.9518 0.240673 14 0.35934 14 0.500007V4.423C14 4.65167 13.9218 4.84367 13.7654 4.999C13.609 5.15434 13.4149 5.23167 13.183 5.231H9.21638C9.07347 5.231 8.95349 5.183 8.85642 5.087C8.75935 4.991 8.71082 4.872 8.71082 4.73C8.71082 4.588 8.75935 4.46934 8.85642 4.374C8.95349 4.27867 9.07347 4.231 9.21638 4.231H12.452C11.9262 3.23367 11.1857 2.44567 10.2305 1.86701C9.27671 1.28901 8.22582 1.00001 7.07786 1.00001C5.39265 1.00001 3.96023 1.58334 2.78059 2.75001C1.60094 3.91667 1.01112 5.33334 1.01112 7C1.01112 8.66667 1.60094 10.0833 2.78059 11.25C3.96023 12.4167 5.39265 13 7.07786 13C8.28244 13 9.3849 12.6773 10.3852 12.032C11.3862 11.386 12.1284 10.5283 12.6117 9.459C12.669 9.32834 12.7614 9.23667 12.8888 9.184C13.0169 9.13067 13.1476 9.12634 13.2811 9.171C13.4233 9.21567 13.5177 9.30734 13.5642 9.446C13.6107 9.58467 13.6057 9.71934 13.549 9.85C12.9875 11.1067 12.1247 12.1123 10.9606 12.867C9.79643 13.6217 8.50219 13.9993 7.07786 14Z" fill="white"/>
</svg>
