<svg width="16" height="16" viewBox="0 0 16 16" fill="none" xmlns="http://www.w3.org/2000/svg">
<path d="M5.80668 9.52683C5.71286 9.43447 5.59384 9.3719 5.46456 9.34699C5.33529 9.32208 5.20153 9.33594 5.08012 9.38683C4.99741 9.41681 4.92229 9.46459 4.86008 9.5268C4.79787 9.589 4.75009 9.66412 4.72012 9.74683C4.67688 9.84822 4.65945 9.95876 4.6694 10.0685C4.67934 10.1783 4.71636 10.2839 4.77712 10.3759C4.83788 10.4679 4.9205 10.5433 5.01758 10.5955C5.11466 10.6478 5.22317 10.6751 5.3334 10.6751C5.44363 10.6751 5.55214 10.6478 5.64922 10.5955C5.74629 10.5433 5.82891 10.4679 5.88967 10.3759C5.95044 10.2839 5.98745 10.1783 5.9974 10.0685C6.00734 9.95876 5.98992 9.84822 5.94668 9.74683C5.91295 9.66602 5.86559 9.59161 5.80668 9.52683ZM11.14 9.52683C11.0111 9.40784 10.8421 9.34177 10.6667 9.34177C10.4913 9.34177 10.3223 9.40784 10.1934 9.52683C10.1345 9.59162 10.0871 9.66606 10.0534 9.74688C10.0014 9.8681 9.9869 10.0021 10.0119 10.1317C10.0368 10.2612 10.1 10.3803 10.1933 10.4735C10.2581 10.5324 10.3326 10.5798 10.4134 10.6135C10.4932 10.6487 10.5794 10.6669 10.6666 10.6669C10.7539 10.6669 10.8401 10.6487 10.9199 10.6135C11.0006 10.5796 11.0751 10.5323 11.14 10.4735C11.2333 10.3803 11.2965 10.2612 11.3215 10.1317C11.3464 10.0022 11.332 9.86815 11.28 9.74694C11.2463 9.6661 11.1989 9.59164 11.14 9.52683V9.52683ZM12.873 12.597C13.3449 12.2208 13.7052 11.7229 13.9148 11.1569C14.1245 10.5909 14.1755 9.97843 14.0625 9.38555L13.0625 4.05222C12.9192 3.28827 12.5134 2.59844 11.9153 2.102C11.3172 1.60556 10.5644 1.33372 9.78712 1.3335H6.2129C5.43562 1.33373 4.68286 1.60557 4.08477 2.10202C3.48668 2.59846 3.08087 3.2883 2.93751 4.05224L1.93751 9.38558C1.8245 9.97846 1.87557 10.5909 2.08522 11.1569C2.29486 11.7229 2.65511 12.2209 3.12708 12.597L2.19534 13.5288C2.13252 13.5905 2.08255 13.664 2.0483 13.7452C2.01406 13.8263 1.99622 13.9134 1.99582 14.0014C1.99542 14.0895 2.01247 14.1767 2.04598 14.2581C2.07949 14.3396 2.1288 14.4135 2.19105 14.4758C2.25331 14.538 2.32729 14.5874 2.40871 14.6209C2.49013 14.6544 2.57738 14.6714 2.66543 14.671C2.75347 14.6706 2.84057 14.6528 2.92168 14.6185C3.00279 14.5843 3.07632 14.5343 3.13801 14.4715L4.3841 13.2254C4.65475 13.296 4.9332 13.3323 5.2129 13.3335H10.7871C11.0668 13.3323 11.3453 13.296 11.6159 13.2254L12.862 14.4715C12.9874 14.5946 13.1563 14.6633 13.3321 14.6625C13.5078 14.6617 13.6762 14.5915 13.8004 14.4672C13.9247 14.343 13.9949 14.1747 13.9957 13.9989C13.9965 13.8232 13.9278 13.6542 13.8047 13.5288L12.873 12.597ZM4.2474 4.29834C4.3336 3.83999 4.57716 3.42613 4.93602 3.12825C5.29489 2.83036 5.74652 2.66716 6.2129 2.66683H9.78712C10.2535 2.66716 10.7051 2.83036 11.064 3.12825C11.4229 3.42613 11.6664 3.83999 11.7526 4.29834L11.9837 5.53096C11.486 6.09734 10.8732 6.55107 10.1863 6.86189C9.49934 7.17272 8.75401 7.3335 8.00001 7.3335C7.24601 7.3335 6.50068 7.17272 5.81373 6.86189C5.12679 6.55107 4.51401 6.09734 4.01628 5.53096L4.2474 4.29834ZM12.3255 11.2775C12.1382 11.5039 11.9032 11.6861 11.6372 11.811C11.3713 11.936 11.081 12.0005 10.7871 12.0002H5.2129C4.91908 12.0001 4.62889 11.9352 4.36296 11.8103C4.09703 11.6853 3.86189 11.5033 3.67426 11.2772C3.48662 11.0511 3.3511 10.7865 3.27733 10.5021C3.20355 10.2176 3.19333 9.92048 3.2474 9.63168L3.72144 7.10344C4.9185 8.11305 6.43403 8.66683 8.00001 8.66683C9.56599 8.66683 11.0815 8.11305 12.2786 7.10344L12.7526 9.63168C12.8072 9.92053 12.7972 10.2179 12.7233 10.5024C12.6495 10.7869 12.5137 11.0516 12.3255 11.2775V11.2775Z" fill="#E9E9E9"/>
</svg>
